<svg version="1.1" id="Layer_1" xmlns="http://www.w3.org/2000/svg" xmlns:xlink="http://www.w3.org/1999/xlink" x="0px" y="0px"
	 width="100%" viewBox="0 0 914 956" enable-background="new 0 0 914 956" xml:space="preserve">
<path fill="#357759" opacity="1.000000" stroke="none" 
	d="
M571.000000,957.000000 
	C380.666656,957.000000 190.833328,957.000000 1.000000,957.000000 
	C1.000000,638.333313 1.000000,319.666656 1.000000,1.000000 
	C305.666656,1.000000 610.333313,1.000000 915.000000,1.000000 
	C915.000000,319.666656 915.000000,638.333313 915.000000,957.000000 
	C800.500000,957.000000 686.000000,957.000000 571.000000,957.000000 
M249.724091,723.701111 
	C259.411469,730.464905 268.693970,737.929382 278.886475,743.818909 
	C292.293182,751.565796 306.135162,758.749878 321.058777,763.289124 
	C340.298126,769.141235 359.640747,774.653809 379.590515,780.503723 
	C380.144379,777.654968 380.986267,775.312500 380.996185,772.966492 
	C381.094757,749.634216 381.062042,726.301270 381.051178,702.968567 
	C381.048737,697.737488 378.412506,694.959900 373.064911,694.314697 
	C371.622314,694.140686 370.178345,693.794373 368.795013,693.343323 
	C360.662476,690.691406 352.478149,688.175049 344.448975,685.236694 
	C338.102905,682.914307 331.600189,680.660095 325.802307,677.284485 
	C317.198303,672.275085 308.553345,667.005066 301.025940,660.560913 
	C291.502228,652.407776 282.772095,643.247620 274.318024,633.958984 
	C270.115692,629.341736 267.166901,623.545471 263.879517,618.143555 
	C259.911682,611.623291 255.346893,605.288147 252.565720,598.268616 
	C248.992935,589.251038 246.991119,579.616455 244.213516,570.277161 
	C240.683594,558.408203 239.224823,546.269653 239.222626,533.924194 
	C239.220703,523.091187 239.222076,512.258118 239.222244,501.425079 
	C239.222397,491.925323 239.239166,482.425507 239.210983,472.925842 
	C239.204514,470.746735 239.233887,468.595825 242.347122,469.475952 
	C250.470169,471.772461 258.552673,474.211975 266.668579,476.534210 
	C281.021027,480.640839 295.513184,484.311493 309.703918,488.913727 
	C320.067719,492.274811 330.278046,496.342133 340.110199,501.031067 
	C347.194763,504.409668 353.548920,509.322510 360.220367,513.564331 
	C371.958099,521.027283 381.555695,530.834045 390.291534,541.496521 
	C399.899078,553.222778 406.723358,566.360046 411.592163,580.846863 
	C415.922424,593.731201 418.373016,606.922791 418.561951,620.163696 
	C419.194305,664.486816 418.801819,708.824646 418.801941,753.156799 
	C418.801971,763.156555 418.888245,773.157349 418.758179,783.155396 
	C418.710236,786.843506 420.194580,788.261353 423.829407,788.091614 
	C427.840393,787.904419 431.866821,788.049377 435.886536,788.049438 
	C447.362610,788.049500 458.838715,788.049500 470.314789,788.049500 
	C477.481262,788.049500 484.647766,788.060181 491.814209,788.046509 
	C499.017670,788.032776 499.423523,787.620850 499.423584,780.448059 
	C499.424530,678.450745 499.345337,576.453308 499.485779,474.456207 
	C499.516632,452.051910 499.944458,429.631042 500.973755,407.253906 
	C501.365845,398.729218 503.404205,390.152771 505.677429,381.870300 
	C509.648865,367.400299 515.507324,353.706482 523.174622,340.661438 
	C531.358521,326.737366 541.674988,314.425293 553.226379,303.685822 
	C563.362000,294.262726 575.916199,287.236725 588.007141,280.189911 
	C596.663513,275.144806 606.081177,271.108185 615.591125,267.903320 
	C626.636719,264.180939 638.154907,261.861511 649.466736,258.928497 
	C659.209595,256.402283 668.950745,253.869583 678.982910,251.264374 
	C678.982910,269.175140 678.702209,286.838501 679.056152,304.489166 
	C679.470764,325.167938 676.732178,345.100281 670.364380,364.962616 
	C666.440552,377.201813 661.318359,388.746338 655.066956,399.567017 
	C643.309448,419.918518 626.985107,436.623779 607.631042,449.981110 
	C598.529724,456.262512 588.919800,462.265228 578.729187,466.390350 
	C566.893188,471.181549 554.114746,473.608978 541.881958,477.492523 
	C539.942566,478.108215 537.391541,480.970551 537.369141,482.821320 
	C537.069214,507.650360 537.189819,532.484314 537.147461,557.316833 
	C537.140625,561.342407 539.408691,562.269775 542.683350,561.494934 
	C547.586426,560.334900 552.477356,559.057861 557.270874,557.512451 
	C575.187317,551.736023 593.602173,547.698975 610.968994,539.955139 
	C628.265930,532.242493 644.634277,523.190186 660.048096,512.289917 
	C663.117065,510.119537 666.346252,508.125000 669.168457,505.666901 
	C674.683228,500.863861 680.058411,495.889465 685.310669,490.799500 
	C689.808716,486.440430 694.383301,482.089569 698.334229,477.253235 
	C704.175293,470.103088 709.069458,462.155548 715.129822,455.213715 
	C725.440796,443.402924 731.980774,429.368530 738.572266,415.551697 
	C745.481628,401.068542 749.769958,385.501434 753.672241,369.812531 
	C757.261475,355.382172 759.210022,340.713745 759.391968,326.174255 
	C760.111450,268.684753 759.703857,211.180954 759.632263,153.682541 
	C759.629089,151.162949 758.819702,148.644363 758.385864,146.125305 
	C756.351624,146.691574 754.319214,147.264389 752.281311,147.817230 
	C751.964661,147.903168 751.614807,147.863052 751.294312,147.939743 
	C742.463684,150.052979 733.601562,152.045761 724.817444,154.337875 
	C718.853333,155.894165 713.045410,158.046265 707.086792,159.626938 
	C692.334167,163.540421 677.511719,167.191132 662.764343,171.123520 
	C655.119446,173.162048 647.615723,175.728577 639.975525,177.786591 
	C623.524597,182.217957 606.925537,186.130554 590.587158,190.935898 
	C581.248047,193.682648 572.184570,197.491852 563.216309,201.334610 
	C555.958191,204.444611 548.872986,208.045975 541.999084,211.938080 
	C536.039124,215.312622 530.297119,219.149734 524.790710,223.230301 
	C515.389832,230.196930 505.638580,236.866638 497.160431,244.855881 
	C487.597137,253.867722 478.625519,263.695618 470.592865,274.092834 
	C461.828583,285.437042 453.518066,297.344299 446.711853,309.926849 
	C440.358429,321.672333 436.236389,334.625031 431.134521,347.047302 
	C421.973877,369.351929 417.801361,392.497345 418.718567,416.649261 
	C419.192566,429.130920 418.812256,441.645477 418.788361,454.145081 
	C418.785431,455.680176 418.599335,457.214935 418.454834,459.406555 
	C416.405853,458.251343 415.021301,457.697632 413.908569,456.805054 
	C408.327362,452.328094 403.177643,447.204773 397.206024,443.345795 
	C385.315643,435.662109 373.487854,427.585632 360.724274,421.617401 
	C340.744995,412.275024 319.480621,406.125427 298.191406,400.315460 
	C287.242371,397.327362 276.325745,394.215973 265.345490,391.347748 
	C251.356888,387.693787 237.279984,384.374786 223.311111,380.648987 
	C202.920837,375.210541 182.597092,369.522888 162.225433,364.013794 
	C161.227509,363.743896 160.042511,364.165710 158.611038,364.295776 
	C158.611038,366.574890 158.611023,368.552429 158.611023,370.529938 
	C158.611023,423.361877 158.556961,476.193939 158.667313,529.025635 
	C158.684540,537.271179 159.146118,545.544983 159.948395,553.752258 
	C160.932938,563.824036 162.072876,573.917480 163.922546,583.856995 
	C165.698227,593.398926 167.485611,603.143982 171.027023,612.104492 
	C176.465134,625.864014 182.829651,639.343445 189.897705,652.345581 
	C195.538483,662.722107 202.428162,672.496948 209.488892,681.999939 
	C215.075043,689.518250 221.497147,696.476013 228.034698,703.210266 
	C234.787415,710.165955 242.127884,716.551025 249.724091,723.701111 
z"/>
<path fill="#FEFEFE" opacity="1.000000" stroke="none" 
	d="
M249.467651,723.443420 
	C242.127884,716.551025 234.787415,710.165955 228.034698,703.210266 
	C221.497147,696.476013 215.075043,689.518250 209.488892,681.999939 
	C202.428162,672.496948 195.538483,662.722107 189.897705,652.345581 
	C182.829651,639.343445 176.465134,625.864014 171.027023,612.104492 
	C167.485611,603.143982 165.698227,593.398926 163.922546,583.856995 
	C162.072876,573.917480 160.932938,563.824036 159.948395,553.752258 
	C159.146118,545.544983 158.684540,537.271179 158.667313,529.025635 
	C158.556961,476.193939 158.611023,423.361877 158.611023,370.529938 
	C158.611023,368.552429 158.611038,366.574890 158.611038,364.295776 
	C160.042511,364.165710 161.227509,363.743896 162.225433,364.013794 
	C182.597092,369.522888 202.920837,375.210541 223.311111,380.648987 
	C237.279984,384.374786 251.356888,387.693787 265.345490,391.347748 
	C276.325745,394.215973 287.242371,397.327362 298.191406,400.315460 
	C319.480621,406.125427 340.744995,412.275024 360.724274,421.617401 
	C373.487854,427.585632 385.315643,435.662109 397.206024,443.345795 
	C403.177643,447.204773 408.327362,452.328094 413.908569,456.805054 
	C415.021301,457.697632 416.405853,458.251343 418.454834,459.406555 
	C418.599335,457.214935 418.785431,455.680176 418.788361,454.145081 
	C418.812256,441.645477 419.192566,429.130920 418.718567,416.649261 
	C417.801361,392.497345 421.973877,369.351929 431.134521,347.047302 
	C436.236389,334.625031 440.358429,321.672333 446.711853,309.926849 
	C453.518066,297.344299 461.828583,285.437042 470.592865,274.092834 
	C478.625519,263.695618 487.597137,253.867722 497.160431,244.855881 
	C505.638580,236.866638 515.389832,230.196930 524.790710,223.230301 
	C530.297119,219.149734 536.039124,215.312622 541.999084,211.938080 
	C548.872986,208.045975 555.958191,204.444611 563.216309,201.334610 
	C572.184570,197.491852 581.248047,193.682648 590.587158,190.935898 
	C606.925537,186.130554 623.524597,182.217957 639.975525,177.786591 
	C647.615723,175.728577 655.119446,173.162048 662.764343,171.123520 
	C677.511719,167.191132 692.334167,163.540421 707.086792,159.626938 
	C713.045410,158.046265 718.853333,155.894165 724.817444,154.337875 
	C733.601562,152.045761 742.463684,150.052979 751.294312,147.939743 
	C751.614807,147.863052 751.964661,147.903168 752.281311,147.817230 
	C754.319214,147.264389 756.351624,146.691574 758.385864,146.125305 
	C758.819702,148.644363 759.629089,151.162949 759.632263,153.682541 
	C759.703857,211.180954 760.111450,268.684753 759.391968,326.174255 
	C759.210022,340.713745 757.261475,355.382172 753.672241,369.812531 
	C749.769958,385.501434 745.481628,401.068542 738.572266,415.551697 
	C731.980774,429.368530 725.440796,443.402924 715.129822,455.213715 
	C709.069458,462.155548 704.175293,470.103088 698.334229,477.253235 
	C694.383301,482.089569 689.808716,486.440430 685.310669,490.799500 
	C680.058411,495.889465 674.683228,500.863861 669.168457,505.666901 
	C666.346252,508.125000 663.117065,510.119537 660.048096,512.289917 
	C644.634277,523.190186 628.265930,532.242493 610.968994,539.955139 
	C593.602173,547.698975 575.187317,551.736023 557.270874,557.512451 
	C552.477356,559.057861 547.586426,560.334900 542.683350,561.494934 
	C539.408691,562.269775 537.140625,561.342407 537.147461,557.316833 
	C537.189819,532.484314 537.069214,507.650360 537.369141,482.821320 
	C537.391541,480.970551 539.942566,478.108215 541.881958,477.492523 
	C554.114746,473.608978 566.893188,471.181549 578.729187,466.390350 
	C588.919800,462.265228 598.529724,456.262512 607.631042,449.981110 
	C626.985107,436.623779 643.309448,419.918518 655.066956,399.567017 
	C661.318359,388.746338 666.440552,377.201813 670.364380,364.962616 
	C676.732178,345.100281 679.470764,325.167938 679.056152,304.489166 
	C678.702209,286.838501 678.982910,269.175140 678.982910,251.264374 
	C668.950745,253.869583 659.209595,256.402283 649.466736,258.928497 
	C638.154907,261.861511 626.636719,264.180939 615.591125,267.903320 
	C606.081177,271.108185 596.663513,275.144806 588.007141,280.189911 
	C575.916199,287.236725 563.362000,294.262726 553.226379,303.685822 
	C541.674988,314.425293 531.358521,326.737366 523.174622,340.661438 
	C515.507324,353.706482 509.648865,367.400299 505.677429,381.870300 
	C503.404205,390.152771 501.365845,398.729218 500.973755,407.253906 
	C499.944458,429.631042 499.516632,452.051910 499.485779,474.456207 
	C499.345337,576.453308 499.424530,678.450745 499.423584,780.448059 
	C499.423523,787.620850 499.017670,788.032776 491.814209,788.046509 
	C484.647766,788.060181 477.481262,788.049500 470.314789,788.049500 
	C458.838715,788.049500 447.362610,788.049500 435.886536,788.049438 
	C431.866821,788.049377 427.840393,787.904419 423.829407,788.091614 
	C420.194580,788.261353 418.710236,786.843506 418.758179,783.155396 
	C418.888245,773.157349 418.801971,763.156555 418.801941,753.156799 
	C418.801819,708.824646 419.194305,664.486816 418.561951,620.163696 
	C418.373016,606.922791 415.922424,593.731201 411.592163,580.846863 
	C406.723358,566.360046 399.899078,553.222778 390.291534,541.496521 
	C381.555695,530.834045 371.958099,521.027283 360.220367,513.564331 
	C353.548920,509.322510 347.194763,504.409668 340.110199,501.031067 
	C330.278046,496.342133 320.067719,492.274811 309.703918,488.913727 
	C295.513184,484.311493 281.021027,480.640839 266.668579,476.534210 
	C258.552673,474.211975 250.470169,471.772461 242.347122,469.475952 
	C239.233887,468.595825 239.204514,470.746735 239.210983,472.925842 
	C239.239166,482.425507 239.222397,491.925323 239.222244,501.425079 
	C239.222076,512.258118 239.220703,523.091187 239.222626,533.924194 
	C239.224823,546.269653 240.683594,558.408203 244.213516,570.277161 
	C246.991119,579.616455 248.992935,589.251038 252.565720,598.268616 
	C255.346893,605.288147 259.911682,611.623291 263.879517,618.143555 
	C267.166901,623.545471 270.115692,629.341736 274.318024,633.958984 
	C282.772095,643.247620 291.502228,652.407776 301.025940,660.560913 
	C308.553345,667.005066 317.198303,672.275085 325.802307,677.284485 
	C331.600189,680.660095 338.102905,682.914307 344.448975,685.236694 
	C352.478149,688.175049 360.662476,690.691406 368.795013,693.343323 
	C370.178345,693.794373 371.622314,694.140686 373.064911,694.314697 
	C378.412506,694.959900 381.048737,697.737488 381.051178,702.968567 
	C381.062042,726.301270 381.094757,749.634216 380.996185,772.966492 
	C380.986267,775.312500 380.144379,777.654968 379.590515,780.503723 
	C359.640747,774.653809 340.298126,769.141235 321.058777,763.289124 
	C306.135162,758.749878 292.293182,751.565796 278.886475,743.818909 
	C268.693970,737.929382 259.411469,730.464905 249.467651,723.443420 
z"/>
</svg>